<?xml version="1.0" encoding="UTF-8"?>
<svg width="23px" height="22px" viewBox="0 0 23 22" version="1.1" xmlns="http://www.w3.org/2000/svg" xmlns:xlink="http://www.w3.org/1999/xlink">
    <title>Half</title>
    <g id="App-Symbols" stroke="none" stroke-width="1" fill="none" fill-rule="evenodd">
        <path d="M5.0291697,20.8270441 C5.41687575,21.1285963 5.90857688,21.0249395 6.49486123,20.6008944 L11.497102,16.9351426 L16.5087933,20.6008944 C17.0950583,21.0249395 17.5773088,21.1285963 17.9744655,20.8270441 C18.3621716,20.5349292 18.4473042,20.0543216 18.2108655,19.3664062 L16.2345523,13.5049895 L21.2840266,9.8863628 C21.8704271,9.47171643 22.1066916,9.03823391 21.9554436,8.56705977 C21.8041956,8.11474108 21.3597473,7.88857209 20.6315882,7.89799017 L14.4379163,7.93570109 L12.556167,2.04600505 C12.3292176,1.34866191 11.9888031,1 11.497102,1 C11.0148321,1 10.6744176,1.34866191 10.4474682,2.04600505 L8.56571892,7.93570109 L2.37202766,7.89799017 C1.64390718,7.88857209 1.1994783,8.11474108 1.04819161,8.56705977 C0.887434971,9.03823391 1.13328553,9.47171643 1.71956989,9.8863628 L6.7690829,13.5049895 L4.79276971,19.3664062 C4.55636973,20.0543216 4.64148302,20.5349292 5.0291697,20.8270441 Z M11.497102,15.3143028 L11.497102,3.28990555 C11.5254537,3.28990555 11.5443742,3.3087417 11.5538248,3.36528878 L13.1991741,8.82150229 C13.3221092,9.20787512 13.5679597,9.36805966 13.9556657,9.35864158 L19.6764602,9.25498482 C19.7332024,9.25498482 19.752181,9.25498482 19.7616703,9.28325835 C19.7711596,9.31153189 19.752181,9.33036805 19.7144174,9.35864158 L15.0052801,12.6003328 C14.6743162,12.8265018 14.5986729,13.1186166 14.7310585,13.486134 L16.6128078,18.8763843 C16.6222584,18.9329256 16.6317089,18.9423494 16.6128078,18.9611952 C16.5938872,18.9894669 16.5655162,18.9706191 16.5276945,18.9423494 L11.9793526,15.4839247 C11.8280465,15.3708306 11.6673092,15.3048847 11.497102,15.3143028 Z" id="Half" stroke="#000000" stroke-width="0.500000004" fill="#000000" fill-rule="nonzero"></path>
    </g>
</svg>